<?xml version="1.0" encoding="UTF-8" standalone="no"?>
<!-- Created with Inkscape (http://www.inkscape.org/) -->
<svg xmlns:dc="http://purl.org/dc/elements/1.1/" xmlns:cc="http://creativecommons.org/ns#" xmlns:rdf="http://www.w3.org/1999/02/22-rdf-syntax-ns#" xmlns:svg="http://www.w3.org/2000/svg" xmlns="http://www.w3.org/2000/svg" xmlns:sodipodi="http://sodipodi.sourceforge.net/DTD/sodipodi-0.dtd" xmlns:inkscape="http://www.inkscape.org/namespaces/inkscape" width="256" height="256" id="svg2" version="1.1" inkscape:version="0.48.2 r9819" sodipodi:docname="square.svg">
  <defs id="defs4"/>
  <sodipodi:namedview id="base" pagecolor="#ffffff" bordercolor="#666666" borderopacity="1.0" inkscape:pageopacity="0.0" inkscape:pageshadow="2" inkscape:zoom="2.6" inkscape:cx="69.317644" inkscape:cy="130.05244" inkscape:document-units="px" inkscape:current-layer="layer1" showgrid="false" fit-margin-top="0" fit-margin-left="0" fit-margin-right="0" fit-margin-bottom="0" inkscape:window-width="1920" inkscape:window-height="1063" inkscape:window-x="0" inkscape:window-y="0" inkscape:window-maximized="1"/>
  <metadata id="metadata7">
    <rdf:RDF>
      <cc:Work rdf:about="">
        <dc:format>image/svg+xml</dc:format>
        <dc:type rdf:resource="http://purl.org/dc/dcmitype/StillImage"/>
        <dc:title/>
      </cc:Work>
    </rdf:RDF>
  </metadata>
  <g inkscape:label="Layer 1" inkscape:groupmode="layer" id="layer1" transform="translate(88.884659,-585.41577)">
    <path style="fill:#ffe3c0;fill-opacity:1" d="m 39.115341,841.41577 -128,0 0,-128 0,-128 128,0 127.999999,0 0,128 0,128 -127.999999,0 z" id="path3862" inkscape:connector-curvature="0"/>
    <path style="fill:#000000" d="m -25.700035,786.36219 c -5.94911,-0.0367 -11.047001,-0.75707 -16.184624,-2.28699 -4.125,-1.22837 -9.90938,-3.55129 -12.854179,-5.16205 -2.944798,-1.61075 -7.373928,-4.70649 -9.84251,-6.87943 -2.468582,-2.17293 -5.502617,-5.5634 -6.742301,-7.53437 -1.239683,-1.97097 -2.786743,-5.20682 -3.437911,-7.19077 -0.651168,-1.98396 -1.193852,-8.39646 -1.205964,-14.25 -0.01946,-9.40219 -0.22311,-10.64281 -1.747073,-10.64281 -0.948777,0 -2.772638,-0.73376 -4.053024,-1.63058 -2.127643,-1.49026 -2.294728,-2.21896 -1.941624,-8.46803 0.277777,-4.91596 0.969304,-7.61926 2.460738,-9.61942 1.570876,-2.10671 3.383838,-3.01815 7.469118,-3.75501 2.967101,-0.53517 25.64473,-0.98517 50.39473,-1 34.010348,-0.0204 45.5287,0.27578 47.16492,1.21269 1.45217,0.83152 2.52215,2.90539 3.25,6.29922 0.59679,2.78276 1.08508,6.60117 1.08508,8.48535 0,3.34703 0.0747,3.40911 3.25,2.70078 1.7875,-0.39875 5.275,-0.725 7.75,-0.725 2.475,0 5.90691,0.31513 7.62646,0.70029 l 3.12646,0.70029 0.67206,-5.94025 c 0.36963,-3.26714 1.13972,-7.28179 1.71131,-8.92145 0.80571,-2.31125 1.86222,-3.15621 4.70148,-3.76003 2.01423,-0.42837 23.01223,-0.76527 46.662229,-0.74866 26.1606,0.0184 45.31309,0.45065 48.90656,1.10387 3.52526,0.64081 6.43061,1.79035 7.2064,2.85132 0.71492,0.9777 1.80352,4.2038 2.41911,7.16912 0.69081,3.32757 0.78339,6.4354 0.24187,8.11849 -0.49179,1.52848 -2.22565,3.38627 -3.94506,4.22701 l -3.06765,1.5 -0.48918,11.03606 c -0.36073,8.13814 -1.0281,12.25435 -2.54151,15.67567 -1.12877,2.55178 -3.93616,6.68333 -6.23863,9.18122 -2.30247,2.49789 -6.57049,6.12414 -9.48449,8.05834 -2.914,1.9342 -9.34913,4.87393 -14.3003,6.53272 -7.48034,2.50614 -10.59837,3.01599 -18.44466,3.01599 -6.062759,0 -12.149949,-0.69244 -17.006609,-1.93456 -4.16024,-1.06402 -9.81865,-3.07705 -12.57424,-4.47341 -2.75559,-1.39636 -7.73159,-5.0584 -11.05777,-8.13786 -3.59305,-3.32653 -7.05521,-7.70046 -8.53015,-10.7766 -1.66143,-3.46505 -2.86228,-8.48514 -3.63062,-15.17757 -0.63144,-5.5 -1.60887,-10.55927 -2.17206,-11.24282 -0.56319,-0.68356 -2.77823,-1.7152 -4.92231,-2.29254 -2.14408,-0.57734 -5.57916,-0.75506 -7.63352,-0.39493 -2.05435,0.36012 -4.66947,1.23839 -5.81138,1.9517 -1.73253,1.08226 -2.25497,2.94185 -3.15625,11.23446 -0.62943,5.79134 -1.99269,12.05899 -3.26744,15.02223 -1.38478,3.21902 -4.45946,7.26647 -8.37965,11.03084 -3.40575,3.27037 -8.987635,7.35722 -12.404184,9.08188 -3.41655,1.72467 -9.392311,3.80478 -13.279469,4.62247 -3.887157,0.81769 -10.97564,1.4626 -15.752183,1.43313 z m 2.171031,-8.0826 c 6.164001,0.0852 12.157157,-0.45644 16,-1.44595 3.37939,-0.87016 8.493525,-2.92057 11.364746,-4.55645 2.87122,-1.63588 6.825342,-4.84934 8.786939,-7.14103 1.96159,-2.29168 4.33741,-6.65377 5.2796,-9.69354 1.26057,-4.067 1.70057,-8.96065 1.66577,-18.52685 -0.0278,-7.64391 -0.53262,-14.13302 -1.22525,-15.75 l -1.17796,-2.75 -39.83362,0 c -30.349149,0 -40.213579,0.29763 -41.429397,1.25 -0.877678,0.6875 -2.313686,4.48883 -3.19113,8.44741 -0.877444,3.95857 -1.592747,9.80857 -1.589561,13 0.0032,3.19142 0.428982,8.38633 0.946215,11.54424 0.585515,3.5748 2.081252,7.39979 3.963349,10.13532 1.66261,2.41652 5.149718,5.80241 7.749131,7.52418 2.599412,1.72178 7.675798,3.99261 11.280858,5.04628 3.60506,1.05367 7.679655,2.11026 9.054655,2.34799 1.375,0.23772 6.935045,0.4935 12.355655,0.5684 z m 124.734384,0.0468 c 7.5046,0.0634 12.82978,-0.48341 18.27745,-1.87669 4.22808,-1.08136 9.27245,-2.71826 11.20972,-3.63755 1.93726,-0.91929 5.48422,-3.57822 7.88213,-5.90872 2.39791,-2.3305 5.15035,-5.7561 6.11652,-7.61245 1.21229,-2.3292 1.88901,-6.47418 2.18368,-13.37517 0.28879,-6.76326 -0.0787,-12.38239 -1.13551,-17.36047 -0.85937,-4.04825 -2.08564,-7.99081 -2.72503,-8.76123 -0.96814,-1.16654 -7.86849,-1.35708 -41.26753,-1.13953 l -40.104999,0.26123 -1.4881,3 c -1.05274,2.12231 -1.49412,6.36447 -1.50867,14.5 -0.0118,6.58614 0.57347,13.85011 1.36965,17 0.76461,3.025 2.68786,7.39969 4.27389,9.72154 1.58602,2.32185 4.86183,5.58254 7.27956,7.24598 2.41773,1.66345 5.66743,3.53052 7.22154,4.14905 1.55411,0.61853 4.85066,1.7051 7.32566,2.4146 2.475,0.7095 9.26552,1.33023 15.090039,1.37941 z" id="path4925" inkscape:connector-curvature="0"/>
    <path style="fill:#000000" d="m 45.460631,785.1025 c -1.65331,1.09776 -2.32877,1.14901 -2.90277,0.22026 -0.4357,-0.70497 0.0296,-1.77904 1.11427,-2.57217 1.02428,-0.74898 2.25178,-1.23196 2.72777,-1.0733 0.47599,0.15866 0.94419,0.67234 1.04044,1.14151 0.0962,0.46916 -0.79462,1.49683 -1.97971,2.2837 z m -11.22285,0.31327 c -1.03265,0 -2.4045,-0.63494 -3.04855,-1.41097 -0.78241,-0.94274 -0.8299,-1.62179 -0.14312,-2.04625 0.56535,-0.3494 1.9372,-0.14863 3.04856,0.44616 1.11137,0.59478 2.02067,1.51559 2.02067,2.04624 0,0.53065 -0.8449,0.96482 -1.87756,0.96482 z" id="path4992" inkscape:connector-curvature="0"/>
    <path style="fill:#ff9999;fill-opacity:1" d="m 38.687201,824.34531 c -3.88952,-0.0388 -8.7712,-0.6943 -10.84818,-1.45677 -2.07697,-0.76246 -5.80496,-2.84316 -8.28442,-4.62377 -2.47946,-1.78062 -5.81493,-5.21042 -7.41215,-7.62179 -1.597231,-2.41138 -2.658596,-5.02397 -2.358593,-5.80576 0.454041,-1.18322 5.387933,-1.42145 29.438473,-1.42145 25.42752,0 28.89301,0.18587 28.89301,1.54966 0,0.85231 -0.65629,2.81879 -1.45843,4.36996 -0.80214,1.55116 -3.72975,4.8624 -6.5058,7.35831 -2.77605,2.49591 -7.14992,5.25443 -9.71971,6.13004 -2.66384,0.90767 -7.71231,1.56174 -11.7442,1.52157 z" id="path5075" inkscape:connector-curvature="0"/>
    <path style="fill:#330000;fill-opacity:1" d="M 49.615341,698.03332 C 19.452201,691.49738 1.188898,670.24425 0.747733,641.16577 c -0.13542,-8.92595 0.09797,-8.75808 -6.256282,-4.5 -14.516151,9.72748 -14.369464,38.78588 0.270067,53.5 l 5.223388,5.25 -4.346814,0 c -24.696562,0 -45.867278,-15.01105 -50.700325,-35.94895 -0.641257,-2.77808 -1.458814,-5.05105 -1.816792,-5.05105 -2.687271,0 -21.934513,22.63806 -28.43222,33.44117 l -3.573414,5.94117 0,-54.19117 0,-54.19117 128,0 127.999999,0 0,56.94614 0,56.94614 -5.25448,-1.80781 c -26.27458,-9.03978 -36.93265,-24.51643 -37.07536,-53.83732 l -0.0548,-11.25285 -2.68837,2.57563 c -11.50553,11.02299 -12.09854,35.57225 -1.24874,51.69497 1.82695,2.71484 3.32173,5.11586 3.32173,5.33559 0,1.32923 -19.63251,0.15592 -26.414559,-1.57864 -21.91267,-5.60432 -31.83645,-18.77335 -33.45967,-44.40158 l -0.62575,-9.87972 -2.36649,4.22314 c -9.60041,17.13252 -0.35206,41.36143 20.47386,53.63763 5.87116,3.46086 -19.83238,6.67605 -32.10737,4.01623 z" id="path3865" inkscape:connector-curvature="0"/>
    <path style="fill:#330000;fill-opacity:1" d="m -25.012214,753.76306 c -1.884543,-2.26938 -2.365919,-17.06222 -0.65893,-20.24913 4.065088,-7.58945 8.832997,-4.05385 9.547516,7.07987 0.765783,11.93253 -4.023331,19.02804 -8.888586,13.16926 z m 120.489395,-2.0237 c -3.71251,-8.8853 0.27543,-24.91336 5.402059,-21.71155 6.55067,4.09119 5.69609,24.4237 -1.059439,25.20654 -2.35875,0.27334 -2.9755,-0.22303 -4.34262,-3.49499 z" id="path3948" inkscape:connector-curvature="0"/>
  </g>
</svg>